<?xml version="1.0" standalone="no"?>
<!DOCTYPE svg PUBLIC "-//W3C//DTD SVG 1.1//EN" "http://www.w3.org/Graphics/SVG/1.1/DTD/svg11.dtd" >
<svg xmlns="http://www.w3.org/2000/svg">
<metadata>
Created by FontForge 20120731 at Tue Oct 27 17:19:32 2015
 By Ads
</metadata>
<defs>
<font id="iconfont" horiz-adv-x="1024" >
  <font-face 
    font-family="iconfont"
    font-weight="500"
    font-stretch="normal"
    units-per-em="1024"
    panose-1="2 0 6 3 0 0 0 0 0 0"
    ascent="812"
    descent="-212"
    x-height="792"
    bbox="0 -224.651 1090 800"
    underline-thickness="50"
    underline-position="-100"
    unicode-range="U+0078-E627"
  />
<missing-glyph horiz-adv-x="374" 
d="M34 0v682h272v-682h-272zM68 34h204v614h-204v-614z" />
    <glyph glyph-name=".notdef" horiz-adv-x="374" 
d="M34 0v682h272v-682h-272zM68 34h204v614h-204v-614z" />
    <glyph glyph-name=".null" horiz-adv-x="0" 
 />
    <glyph glyph-name="nonmarkingreturn" horiz-adv-x="341" 
 />
    <glyph glyph-name="x" unicode="x" horiz-adv-x="1001" 
d="M281 543q-27 -1 -53 -1h-83q-18 0 -36.5 -6t-32.5 -18.5t-23 -32t-9 -45.5v-76h912v41q0 16 -0.5 30t-0.5 18q0 13 -5 29t-17 29.5t-31.5 22.5t-49.5 9h-133v-97h-438v97zM955 310v-52q0 -23 0.5 -52t0.5 -58t-10.5 -47.5t-26 -30t-33 -16t-31.5 -4.5q-14 -1 -29.5 -0.5
t-29.5 0.5h-32l-45 128h-439l-44 -128h-29h-34q-20 0 -45 1q-25 0 -41 9.5t-25.5 23t-13.5 29.5t-4 30v167h911zM163 247q-12 0 -21 -8.5t-9 -21.5t9 -21.5t21 -8.5q13 0 22 8.5t9 21.5t-9 21.5t-22 8.5zM316 123q-8 -26 -14 -48q-5 -19 -10.5 -37t-7.5 -25t-3 -15t1 -14.5
t9.5 -10.5t21.5 -4h37h67h81h80h64h36q23 0 34 12t2 38q-5 13 -9.5 30.5t-9.5 34.5q-5 19 -11 39h-368zM336 498v228q0 11 2.5 23t10 21.5t20.5 15.5t34 6h188q31 0 51.5 -14.5t20.5 -52.5v-227h-327z" />
    <glyph glyph-name="uniE600" unicode="&#xe600;" horiz-adv-x="1090" 
d="M547 726q25 0 49 -10t40.5 -28t27 -41.5t10.5 -50.5q0 -39 -20 -69.5t-52 -47.5q-11 -31 -11 -65q0 -38 13.5 -75.5t38 -67.5t56.5 -49t69 -19q32 0 60 15.5t51 39.5t39 54t23 60q-28 13 -45 40t-17 59q0 23 8 42.5t22.5 33.5t34 23t41 9t40.5 -9t33.5 -23t23 -33.5
t8.5 -42.5q0 -32 -17 -58.5t-44 -39.5q-5 -51 -15 -104.5t-25.5 -106t-36 -101.5t-45.5 -90q-85 -32 -176 -49t-187.5 -17t-187 17t-176.5 49q-24 41 -44.5 90t-36 101.5t-26.5 106t-15 104.5q-26 13 -42 39.5t-16 58.5q0 23 8 42.5t22 33.5t33 23t40.5 9t41 -9t34 -23
t22.5 -33.5t8 -42.5q0 -33 -17.5 -60t-45.5 -39q8 -31 23.5 -61t38.5 -54.5t51.5 -40t59.5 -15.5q37 0 69.5 19t57 49t38.5 68t14 76q0 36 -15 70q-28 17 -46 47t-18 66q0 27 10 50.5t27.5 41.5t40.5 28t50 10z" />
    <glyph glyph-name="uniE601" unicode="&#xe601;" horiz-adv-x="1086" 
d="M321 408l455 2l-218 -550zM373 608l347 -3l62 -134l-451 3zM274 478l-274 114l147 110l176 -91zM0 526l260 -116l279 -546zM842 411l243 126l-512 -670zM837 479l-69 141l157 87l135 -114zM368 675l-59 16l-112 62l131 47h428l130 -54l-125 -61l-42 -10h-351z" />
    <glyph glyph-name="uniE602" unicode="&#xe602;" 
d="M510 501q-27 66 -73 109t-96 56.5t-101 2.5t-90.5 -44.5t-63.5 -94t-21 -137.5q2 -49 22 -93t53.5 -79t66 -61t74.5 -57t63 -51q46 -43 97.5 -87t69.5 -62q12 12 64 56t103 93q21 21 61 52.5t72 58.5t65.5 62t54 78t25.5 92q7 76 -15.5 136t-62.5 92t-92.5 42.5
t-104 -3.5t-98 -55.5t-73.5 -105.5z" />
    <glyph glyph-name="uniE603" unicode="&#xe603;" 
d="M557 287l266 264q9 9 9 22t-9.5 22.5t-22.5 9.5t-23 -9l-265 -264l-263 264q-9 9 -22.5 9t-23 -9t-9.5 -22.5t10 -22.5l263 -264l-265 -264q-10 -9 -10 -22.5t9.5 -22.5t22.5 -9t23 9l265 264l265 -267q10 -9 23 -9t22.5 9.5t9.5 22.5t-9 23z" />
    <glyph glyph-name="uniE604" unicode="&#xe604;" 
d="M800 -160h-576q-40 0 -68 28t-28 68v640q0 40 28 68t68 28h448q13 0 22.5 -9.5t9.5 -22.5t-9.5 -22.5t-22.5 -9.5h-448q-13 0 -22.5 -9.5t-9.5 -22.5v-640q0 -13 9.5 -22.5t22.5 -9.5h576q13 0 22.5 9.5t9.5 22.5v512q0 13 9.5 22.5t22.5 9.5t22.5 -9.5t9.5 -22.5v-512
q0 -40 -28 -68t-68 -28zM612 352q-13 0 -22.5 9.5t-9.5 22.5t9 23l318 318q10 9 23 9t22.5 -9.5t9.5 -22.5t-9 -23l-318 -318q-10 -9 -23 -9zM480 352h-192q-13 0 -22.5 9.5t-9.5 22.5t9.5 22.5t22.5 9.5h192q13 0 22.5 -9.5t9.5 -22.5t-9.5 -22.5t-22.5 -9.5zM672 160h-384
q-13 0 -22.5 9.5t-9.5 22.5t9.5 22.5t22.5 9.5h384q13 0 22.5 -9.5t9.5 -22.5t-9.5 -22.5t-22.5 -9.5z" />
    <glyph glyph-name="uniE605" unicode="&#xe605;" 
d="M512 736q-185 0 -316.5 -131.5t-131.5 -316.5t131.5 -316.5t316.5 -131.5t316.5 131.5t131.5 316.5t-131.5 316.5t-316.5 131.5zM512 -96q-104 0 -192.5 51.5t-140 140t-51.5 192.5t51.5 192.5t140 140t192.5 51.5t192.5 -51.5t140 -140t51.5 -192.5t-51.5 -192.5
t-140 -140t-192.5 -51.5zM672 288h-160v224q0 13 -9.5 22.5t-22.5 9.5t-22.5 -9.5t-9.5 -22.5v-256q0 -13 9.5 -22.5t22.5 -9.5h192q13 0 22.5 9.5t9.5 22.5t-9.5 22.5t-22.5 9.5z" />
    <glyph glyph-name="uniE606" unicode="&#xe606;" 
d="M928 256h-832q-13 0 -22.5 9.5t-9.5 22.5t9.5 22.5t22.5 9.5h832q13 0 22.5 -9.5t9.5 -22.5t-9.5 -22.5t-22.5 -9.5zM832 -128h-192q-13 0 -22.5 9.5t-9.5 22.5t9.5 22.5t22.5 9.5h192q13 0 22.5 9.5t9.5 22.5v160q0 13 9.5 22.5t22.5 9.5t22.5 -9.5t9.5 -22.5v-160
q0 -40 -28 -68t-68 -28zM352 -128h-160q-40 0 -68 28t-28 68v160q0 13 9.5 22.5t22.5 9.5t22.5 -9.5t9.5 -22.5v-160q0 -13 9.5 -22.5t22.5 -9.5h160q13 0 22.5 -9.5t9.5 -22.5t-9.5 -22.5t-22.5 -9.5zM128 416q-13 0 -22.5 9.5t-9.5 22.5v160q0 40 28 68t68 28h160
q13 0 22.5 -9.5t9.5 -22.5t-9.5 -22.5t-22.5 -9.5h-160q-13 0 -22.5 -9.5t-9.5 -22.5v-160q0 -13 -9.5 -22.5t-22.5 -9.5zM896 416q-13 0 -22.5 9.5t-9.5 22.5v160q0 13 -9.5 22.5t-22.5 9.5h-192q-13 0 -22.5 9.5t-9.5 22.5t9.5 22.5t22.5 9.5h192q40 0 68 -28t28 -68v-160
q0 -13 -9.5 -22.5t-22.5 -9.5z" />
    <glyph glyph-name="uniE607" unicode="&#xe607;" 
d="M608 32q-13 0 -22.5 9.5t-9.5 22.5v352q0 13 9.5 22.5t22.5 9.5t22.5 -9.5t9.5 -22.5v-352q0 -13 -9.5 -22.5t-22.5 -9.5zM416 32q-13 0 -22.5 9.5t-9.5 22.5v352q0 13 9.5 22.5t22.5 9.5t22.5 -9.5t9.5 -22.5v-352q0 -13 -9.5 -22.5t-22.5 -9.5zM928 576h-160v64
q0 40 -28 68t-67 28h-321q-40 0 -68 -28t-28 -68v-64h-160q-13 0 -22.5 -9.5t-9.5 -22.5t9.5 -22.5t22.5 -9.5h832q13 0 22.5 9.5t9.5 22.5t-9.5 22.5t-22.5 9.5zM320 640q0 13 9.5 22.5t22.5 9.5h321q13 0 22 -9.5t9 -22.5v-64h-384v64zM736 -160h-448q-40 0 -68 28t-28 68
v480q0 14 9.5 23t22.5 9t22.5 -9t9.5 -23v-480q0 -13 9.5 -22.5t22.5 -9.5h448q13 0 22.5 9.5t9.5 22.5v479q0 13 9.5 22.5t22.5 9.5t22.5 -9.5t9.5 -22.5v-479q0 -40 -28 -68t-68 -28z" />
    <glyph glyph-name="uniE608" unicode="&#xe608;" 
d="M852 499h-281q30 18 57.5 36.5t58.5 43.5t51 51t23 48q3 28 -34 55q-33 24 -58 24q-27 0 -52.5 -27.5t-45 -72.5t-31 -79.5t-20.5 -69.5q-9 35 -20.5 69.5t-31 79.5t-45.5 72.5t-53 27.5q-25 0 -57 -24q-37 -27 -34 -55q2 -22 22 -48t51.5 -51t59 -43.5t56.5 -36.5h-280
q-23 0 -39.5 -16.5t-16.5 -39.5v-107q0 -23 16.5 -39.5t39.5 -16.5h3v-386q0 -23 16 -39.5t40 -16.5h546q23 0 39.5 16.5t16.5 39.5v386h3q23 0 39.5 16.5t16.5 39.5v107q0 23 -16.5 39.5t-39.5 16.5zM669 725q15 0 39 -18q22 -16 21 -25q-3 -25 -49.5 -67t-121.5 -87
q26 92 57.5 144.5t53.5 52.5zM310 681q-1 10 22 26q24 18 38 18q23 0 54 -52.5t57 -144.5q-74 45 -121 87t-50 66zM574 467v-155h-109v155h109zM188 312q-10 0 -17 7t-7 17v107q0 10 7 17t17 7h245v-155h-245zM223 -106v386h210v-410h-186q-10 0 -17 7t-7 17zM465 -130v410
h109v-410h-109zM793 -130h-187v410h211v-386q0 -10 -7 -17t-17 -7zM876 336q0 -10 -7.5 -17t-16.5 -7h-246v155h246q9 0 16.5 -7t7.5 -17v-107z" />
    <glyph glyph-name="uniE609" unicode="&#xe609;" 
d="M550 423l71 255l96 -170q7 -12 21 -12q6 0 11 3q9 5 11.5 14.5t-2.5 18.5l-125 221q-4 8 -14 11t-18 -2l-233 -132q-8 -5 -11 -14.5t2 -18t14.5 -11t18.5 1.5l183 104l-71 -256q-33 7 -65 7q-84 0 -158 -41q-56 -32 -95.5 -83.5t-55.5 -110t-9 -122.5t39 -120
q43 -76 118 -119.5t161 -43.5q84 0 157 42q57 32 96 83t55 109.5t9 122.5t-39 121q-57 101 -167 142zM573 -114q-63 -35 -134 -35q-73 0 -137 37t-100 101q-27 48 -33 102.5t7.5 104.5t47 93.5t81.5 70.5q62 35 133 35q74 0 137.5 -37t99.5 -101q28 -48 34 -102.5t-8 -104
t-47 -93t-81 -71.5z" />
    <glyph glyph-name="uniE60A" unicode="&#xe60a;" 
d="M743 243q94 93 94 225.5t-94 226.5t-226.5 94t-226 -94t-93.5 -226.5t94 -225.5q82 -82 197 -93v-142h-144q-10 0 -17 -7t-7 -17t7 -17t17 -7h144v-144q0 -10 7 -17t17 -7t17 7t7 17v144h144q10 0 17 7t7 17t-7 17t-17 7h-144v142q122 7 207 93zM245 469
q0 113 79.5 192.5t192.5 79.5t192.5 -79.5t79.5 -192.5t-79.5 -192.5t-192.5 -79.5t-192.5 79.5t-79.5 192.5z" />
    <glyph glyph-name="uniE60B" unicode="&#xe60b;" 
d="M901 649v-206h51v232q0 25 -13 38t-26 13l-12 1h-233v-52h207q3 0 7 -1t11.5 -7.5t7.5 -17.5zM127 649q0 11 6.5 17.5t12.5 7.5l7 1h206v52h-232q-1 -1 -6 0t-12.5 -2t-15 -7.5t-13 -15.5t-5.5 -27v-232h52v206zM901 -73q0 -11 -6.5 -17.5t-13.5 -7.5l-6 -1h-207v-51h233
h5q5 -1 13 1.5t15 7t12.5 15.5t5.5 27v232h-51v-206zM127 -73v206h-52v-232q0 -25 13 -38t26 -13h13h232v51h-206q-3 0 -7.5 1t-11.5 7.5t-7 17.5zM75 314h877v-52h-877v52z" />
    <glyph glyph-name="uniE60C" unicode="&#xe60c;" 
d="M384 480h512q13 0 22.5 9.5t9.5 22.5t-9.5 22.5t-22.5 9.5h-512q-13 0 -22.5 -9.5t-9.5 -22.5t9.5 -22.5t22.5 -9.5zM896 320h-512q-13 0 -22.5 -9.5t-9.5 -22.5t9.5 -22.5t22.5 -9.5h512q13 0 22.5 9.5t9.5 22.5t-9.5 22.5t-22.5 9.5zM896 96h-512q-13 0 -22.5 -9.5
t-9.5 -22.5t9.5 -22.5t22.5 -9.5h512q13 0 22.5 9.5t9.5 22.5t-9.5 22.5t-22.5 9.5zM128 512q0 -27 18.5 -45.5t45.5 -18.5t45.5 18.5t18.5 45.5t-18.5 45.5t-45.5 18.5t-45.5 -18.5t-18.5 -45.5zM128 288q0 -27 18.5 -45.5t45.5 -18.5t45.5 18.5t18.5 45.5t-18.5 45.5
t-45.5 18.5t-45.5 -18.5t-18.5 -45.5zM128 64q0 -27 18.5 -45.5t45.5 -18.5t45.5 18.5t18.5 45.5t-18.5 45.5t-45.5 18.5t-45.5 -18.5t-18.5 -45.5z" />
    <glyph glyph-name="uniE60D" unicode="&#xe60d;" 
d="M792.5 314.5q-9.5 9.5 -22.5 9.5t-22 -10l-204 -203v561q0 13 -9.5 22.5t-22.5 9.5t-22.5 -9.5t-9.5 -22.5v-563l-234 235q-9 10 -22.5 10t-23 -9.5t-9.5 -22.5t10 -23l287 -289q5 -5 11 -7q6 -3 13 -3q17 0 26 15l255 254q9 9 9 22.5t-9.5 23zM864 -128h-704
q-13 0 -22.5 9.5t-9.5 22.5t9.5 22.5t22.5 9.5h704q13 0 22.5 -9.5t9.5 -22.5t-9.5 -22.5t-22.5 -9.5z" />
    <glyph glyph-name="uniE60E" unicode="&#xe60e;" 
d="M943 293q0 117 -58 216t-157 156.5t-216 57.5t-216 -57.5t-156.5 -156.5t-57.5 -216t57.5 -216t156.5 -156.5t216 -57.5q143 0 259 88q5 5 5 12q0 8 -5.5 13.5t-13.5 5.5t-14 -6q-103 -76 -230 -76q-106 0 -196 52.5t-142 142t-52 195.5t52 195.5t142 142t196 52.5
t195.5 -52.5t141.5 -142t52 -195.5q0 -98 -44 -182q-1 -4 -1 -6q0 -8 5.5 -13.5t13.5 -5.5q13 0 18 13q49 94 49 197zM400 409q0 18 -13 30.5t-31 12.5t-30.5 -12.5t-12.5 -30.5t12.5 -31t30.5 -13t31 13t13 31zM670 452q-18 0 -31 -12.5t-13 -30.5t13 -31t31 -13t30.5 13
t12.5 31t-12.5 30.5t-30.5 12.5zM702 169q0 9 -6 15.5t-15 6.5q-1 0 -5 -1h-1q-84 -39 -162 -39q-76 0 -160 38h-1q-4 2 -7 2q-9 0 -15 -6.5t-6 -15.5q0 -13 11 -19q94 -43 177 -43t178 43q12 7 12 19z" />
    <glyph glyph-name="uniE60F" unicode="&#xe60f;" 
d="M949 290q0 89 -34.5 170t-93.5 139.5t-139.5 93t-169.5 34.5t-170 -34.5t-139.5 -93t-93 -139.5t-34.5 -170t34.5 -170t93 -139.5t139.5 -93t170 -34.5q145 0 263 90q5 5 5 12q0 8 -6 14t-14 6t-14 -6q-105 -78 -234 -78q-107 0 -198.5 53t-144.5 144.5t-53 199t53 198.5
t144.5 144t199 53t198.5 -53t144 -144t53 -199q0 -100 -45 -185q-1 -4 -1 -5q0 -9 5.5 -14.5t13.5 -5.5q14 0 18 13q50 95 50 200zM397 407.5q0 18.5 -13 31.5t-31 13t-31 -13t-13 -31.5t13 -31t31 -12.5t31 12.5t13 31zM671.5 452q-18.5 0 -31.5 -13t-13 -31.5t13 -31
t31.5 -12.5t31.5 12.5t13 31t-13 31.5t-31.5 13zM342 129q3 0 7 1q78 35 163 35q88 0 165 -35q5 -1 6 -1q9 0 15.5 6t6.5 15q0 12 -12 20h-1q-87 39 -180 39t-181 -39q-11 -7 -11 -20q0 -9 6.5 -15t15.5 -6z" />
    <glyph glyph-name="uniE610" unicode="&#xe610;" 
d="M830 353h-253v255h-130v-255h-255v-130h255v-256h130v256h253v130z" />
    <glyph glyph-name="uniE611" unicode="&#xe611;" 
d="M192 353h640v-130h-640v130z" />
    <glyph glyph-name="uniE612" unicode="&#xe612;" horiz-adv-x="1025" 
d="M213.5 -224q-35.5 0 -60.5 25t-25 60.5t25 60.5t60.5 25t60.5 -25t25 -60.5t-25 -60.5t-60.5 -25zM213.5 -96q-17.5 0 -30 -12.5t-12.5 -30t12.5 -30t30 -12.5t30 12.5t12.5 30t-12.5 30t-30 12.5zM682.5 -224q-35.5 0 -60.5 25t-25 60.5t25 60.5t60.5 25t60.5 -25
t25 -60.5t-25 -60.5t-60.5 -25zM682.5 -96q-17.5 0 -30 -12.5t-12.5 -30t12.5 -30t30 -12.5t30 12.5t12.5 30t-12.5 30t-30 12.5zM448 459q-9 0 -15 6t-6 15v299q0 9 6 15t15 6t15 -6t6 -15v-299q0 -9 -6 -15t-15 -6zM448 459q-9 0 -15 6l-128 128q-6 6 -6 15t6 15t15 6
t15 -6l113 -113l113 113q6 6 15 6t15 -6t6 -15t-6 -15l-128 -128q-6 -6 -15 -6zM683 -96h-470q-9 0 -15 6t-6 15t6 15.5t15 6.5h453l167 709q3 16 20 16h150q9 0 15 -6t6 -15t-6 -15.5t-15 -6.5h-133l-167 -709q-3 -16 -20 -16zM704 -11h-555q-15 0 -20 15l-128 384
q-3 10 3 19t17 9h768q9 0 15.5 -6t6.5 -15t-6.5 -15.5t-15.5 -6.5h-738l114 -341h539q9 0 15 -6t6 -15t-6 -15.5t-15 -6.5z" />
    <glyph glyph-name="uniE613" unicode="&#xe613;" 
d="M384 117h256v256h171l-299 299l-299 -299h171v-256zM213 32h598v-85h-598v85z" />
    <glyph glyph-name="uniE614" unicode="&#xe614;" 
d="M512 -224q104 0 199 40.5t163.5 109t109 163.5t40.5 199t-40.5 199t-109 163.5t-163.5 109t-199 40.5t-199 -40.5t-163.5 -109t-109 -163.5t-40.5 -199t40.5 -199t109 -163.5t163.5 -109t199 -40.5zM512 768q130 0 240.5 -64.5t175 -175t64.5 -240.5t-64.5 -240.5
t-175 -175t-240.5 -64.5t-240.5 64.5t-175 175t-64.5 240.5t64.5 240.5t175 175t240.5 64.5zM343 363q25 -8 49 7q6 4 7.5 10.5t-1.5 11.5q-9 14 -23 6q-11 -8 -22 -4q-11 3 -20 18q-8 12 -4.5 27t16.5 23q16 8 32 5.5t30 -12.5q41 -31 41 -119q0 -73 -32 -143.5t-87 -98.5
q-6 -3 -8 -9t1 -12q4 -9 14 -9q4 0 7 2q66 33 101.5 111.5t35.5 158.5q0 104 -54 144q-22 18 -49.5 20t-48.5 -11q-24 -15 -30.5 -42.5t8.5 -51.5t37 -32zM599 363q25 -8 49 7q6 4 7.5 10.5t-1.5 11.5q-9 14 -23 6q-11 -8 -22 -4q-11 3 -20 18q-8 12 -4.5 27t16.5 23
q16 8 32 5.5t30 -12.5q41 -31 41 -119q0 -73 -32 -143.5t-87 -98.5q-6 -3 -8 -9t1 -12q4 -9 14 -9q4 0 7 2q66 33 101.5 111.5t35.5 158.5q0 104 -54 144q-22 18 -49.5 20t-48.5 -11q-24 -15 -30.5 -42.5t8.5 -51.5t37 -32z" />
    <glyph glyph-name="uniE615" unicode="&#xe615;" 
d="M171 757h682q53 0 90.5 -37.5t37.5 -90.5v-469q0 -53 -37.5 -90.5t-90.5 -37.5h-341l-299 -213v213h-42q-53 0 -90.5 37.5t-37.5 90.5v469q0 53 37.5 90.5t90.5 37.5zM853 672h-682q-18 0 -30.5 -12.5t-12.5 -30.5v-469q0 -18 12.5 -30.5t30.5 -12.5h128v-133l186 133
h368q18 0 30.5 12.5t12.5 30.5v469q0 18 -12.5 30.5t-30.5 12.5z" />
    <glyph glyph-name="uniE616" unicode="&#xe616;" 
d="M1006.5 408.5q-3.5 9.5 -13.5 9.5h-320l-147 340q-3 9 -13 9q-9 0 -13 -9l-143 -340h-324q-10 0 -13.5 -9.5t3.5 -16.5l268 -235l-89 -315q-2 -9 6 -15t16 -1l289 185l289 -185q4 -2 8 -2q5 0 9 3q7 6 5 15l-85 320l264 230q7 7 3.5 16.5z" />
    <glyph glyph-name="uniE617" unicode="&#xe617;" 
d="M510 612l68 -219l16 -40h235l-192 -146l14 -42l55 -193l-160 121l-35 23l-35 -22l-162 -126l57 195l14 43l-194 147h235l16 40zM510 800l-127 -383h-382l309 -235l-119 -405l319 263l318 -263l-118 405l310 235h-382z" />
    <glyph glyph-name="uniE618" unicode="&#xe618;" 
d="M948 -103l-207 207q91 108 91 248q0 104 -51.5 192.5t-140 140t-192.5 51.5t-192.5 -51.5t-140 -140t-51.5 -192.5t51.5 -192.5t140 -140t192.5 -51.5q140 0 248 91l207 -207q10 -11 24 -11.5t23.5 9t9 23.5t-11.5 24zM448 32q-133 0 -226.5 93.5t-93.5 226.5t93.5 226.5
t226.5 93.5t226.5 -93.5t93.5 -226.5t-93.5 -226.5t-226.5 -93.5z" />
    <glyph glyph-name="uniE619" unicode="&#xe619;" 
d="M939 316l-381 376q-4 5 -12 10q-15 10 -32 10t-32 -10q-8 -5 -12 -11l-380 -375q-10 -10 -10 -24.5t10 -23.5q19 -19 46 7l25 26l354 343l3 -2l375 -370q18 -11 30 -11q9 0 16 7q10 9 10 23.5t-10 24.5zM797 335q-12 0 -20.5 -8t-8.5 -20v-351q0 -15 -10 -25t-25 -10h-88
v196q0 36 -25.5 61.5t-62.5 25.5h-85q-37 0 -63 -25.5t-26 -61.5v-196h-87q-15 0 -25 10t-10 25v351q0 11 -8.5 19.5t-20.5 8.5t-20.5 -8t-8.5 -20v-356q0 -36 26 -61.5t63 -25.5h149v248q0 15 10 25t25 10h77q15 0 25 -10t10 -25v-248h149q37 0 63 25.5t26 61.5v356
q-1 12 -9 20t-20 8z" />
    <glyph glyph-name="uniE61A" unicode="&#xe61a;" 
d="M836 542h-28q22 37 19 70q-4 39 -42 64q-40 27 -97 12q-45 -11 -94 -47t-84 -83q-36 47 -85 83t-94 47q-57 15 -97 -12q-38 -25 -41 -64q-3 -33 18 -70h-28q-32 0 -55 -23t-23 -55v-100q0 -26 15 -46.5t40 -28.5q-5 -13 -5 -26v-302q0 -32 23 -55t55 -23h553q32 0 55 23
t23 55v302q0 13 -4 26q24 8 39 28.5t15 46.5v100q0 32 -22.5 55t-55.5 23zM786 -62h-249v347h249q9 0 16 -6.5t7 -15.5v-302q0 -9 -7 -16t-16 -7zM568 542q30 35 66 59.5t68 32.5q33 9 52 -4q16 -11 17 -23q3 -28 -33 -65h-170zM859 464v-100q0 -10 -6.5 -16.5t-16.5 -6.5
h-299v146h299q10 0 16.5 -7t6.5 -16zM482 285v-347h-249q-9 0 -15.5 7t-6.5 16v302q0 9 6.5 15.5t15.5 6.5h249zM248 607q1 12 17 23q19 13 53 4q31 -8 67 -32.5t66 -59.5h-170q-12 12 -23 31t-10 34zM160 464q0 9 7 16t16 7h299v-146h-299q-9 0 -16 6.5t-7 16.5v100z" />
    <glyph glyph-name="uniE61B" unicode="&#xe61b;" 
d="M697 664q-32 0 -62 -12.5t-53.5 -34t-39.5 -40t-29 -38.5q-13 20 -28.5 38.5t-39 40t-53.5 34t-62 12.5q-98 0 -167.5 -76.5t-69.5 -184.5q0 -51 30 -114t72 -101q54 -70 176 -173t143 -103q22 0 141.5 101.5t175.5 173.5q42 38 72 101.5t30 114.5q0 108 -69 184.5
t-167 76.5zM878 403q0 -41 -25.5 -93t-60.5 -83q-1 -2 -3 -4q-46 -60 -127 -130.5t-148 -118.5q-193 141 -276 250q-2 1 -4 3q-34 31 -59.5 83t-25.5 93q0 85 53 145.5t128 60.5q45 0 88 -41t70 -98q7 -14 25 -14t26 14q27 57 70 98t88 41q75 0 128 -60.5t53 -145.5z" />
    <glyph glyph-name="uniE61C" unicode="&#xe61c;" 
d="M632 -93q-24 0 -39 16t-39.5 33t-45.5 17q-22 0 -46.5 -17t-38.5 -32q-15 -16 -38 -16q-11 0 -20 4h-1l-100 56l-1 1q-13 9 -18 25.5t2 31.5q9 21 9 41q0 44 -31 75t-74 31h-4q-13 0 -22.5 10t-12.5 27q-9 46 -9 80t9 80q3 17 12.5 27.5t22.5 9.5h4q43 0 74 31t31 75
q0 21 -9 40q-7 16 -2 32.5t18 25.5l1 1l106 58h1q9 4 19 4q23 0 38 -16q15 -15 39 -31t45 -16t45 15.5t38 30.5q15 16 38 16q11 0 20 -4l1 -1l101 -56l1 -1q14 -9 18.5 -25.5t-2.5 -32.5q-9 -20 -9 -40q0 -44 31 -75t75 -31h3q13 1 22.5 -9.5t13.5 -27.5q8 -45 8 -80t-8 -80
q-4 -17 -13.5 -27.5t-22.5 -9.5h-3q-44 0 -75 -31t-31 -75q0 -20 9 -41q7 -15 2.5 -31.5t-18.5 -25.5l-1 -1l-103 -57l-1 -1q-9 -3 -19 -3zM632 -54q1 -1 3 -1l99 55q-13 31 -13 61q0 63 43.5 108.5t105.5 48.5q8 43 8 72t-8 72q-62 3 -105.5 48.5t-43.5 108.5q0 30 13 61
l-97 54h-1q-2 0 -3 -1q-16 -16 -37 -30q-45 -32 -84 -32q-40 0 -85 32q-21 15 -36 31q-2 1 -4 1h-1l-101 -55q14 -31 14 -61q0 -63 -43.5 -108.5t-106.5 -48.5q-7 -43 -7 -72t7 -72q63 -3 106.5 -48.5t43.5 -108.5q0 -30 -14 -61l96 -53h3q16 17 37 33q46 33 87 33
q40 0 87 -34q21 -16 37 -33zM508 150q-58 0 -99.5 41t-41.5 99.5t41.5 99.5t99.5 41t99.5 -41t41.5 -99.5t-41.5 -99.5t-99.5 -41zM508 393q-43 0 -73 -30t-30 -72.5t30 -72.5t73 -30t73 30t30 72.5t-30 72.5t-73 30zM508 383z" />
    <glyph glyph-name="uniE61D" unicode="&#xe61d;" 
d="M823 405l-287 289q-5 5 -11 7q-6 3 -13 3q-17 0 -26 -15l-255 -254q-9 -9 -9 -22.5t9 -23t22.5 -9.5t22.5 10l204 203v-561q0 -13 9.5 -22.5t22.5 -9.5t22.5 9.5t9.5 22.5v563l234 -235q9 -10 22.5 -10t23 9.5t9.5 22.5t-10 23zM896 96q-13 0 -22.5 -9.5t-9.5 -22.5v-128
h-704v128q0 13 -9.5 22.5t-22.5 9.5t-22.5 -9.5t-9.5 -22.5v-160q0 -13 9.5 -22.5t22.5 -9.5h768q13 0 22.5 9.5t9.5 22.5v160q0 13 -9.5 22.5t-22.5 9.5z" />
    <glyph glyph-name="uniE61E" unicode="&#xe61e;" 
d="M877 -13h-737q-31 0 -53 22t-22 54v451q0 31 22 53t53 22h737q31 0 53 -22t22 -53v-451q0 -32 -22 -54t-53 -22zM140 577q-26 0 -44.5 -18.5t-18.5 -44.5v-451q0 -27 18.5 -45.5t44.5 -18.5h737q26 0 44.5 18.5t18.5 45.5v451q0 26 -18.5 44.5t-44.5 18.5h-737zM877 -18
h-737q-33 0 -56.5 23.5t-23.5 57.5v451q0 33 23.5 56.5t56.5 23.5h737q33 0 56.5 -23.5t23.5 -56.5v-451q0 -34 -23.5 -57.5t-56.5 -23.5zM140 584q-29 0 -49.5 -20.5t-20.5 -49.5v-451q0 -29 20.5 -50t49.5 -21h737q29 0 49.5 21t20.5 50v451q0 29 -20.5 49.5t-49.5 20.5
h-737zM877 -6h-737q-28 0 -48 20t-20 49v451q0 28 20 48t48 20h737q28 0 48.5 -20t20.5 -48v-451q0 -29 -20.5 -49t-48.5 -20zM140 572q-24 0 -41 -17t-17 -41v-451q0 -25 17 -42t41 -17h737q24 0 41 17t17 42v451q0 24 -17 41t-41 17h-737zM441 432h-279q-6 0 -6 6t6 6h279
q6 0 6 -6t-6 -6zM441 427h-279q-4 0 -7.5 3.5t-3.5 8t3.5 7.5t7.5 3h279q5 0 8 -3t3 -7.5t-3 -8t-8 -3.5zM162 439v-1v-1h279q1 0 1 1t-1 1h-279zM441 329h-279q-6 0 -6 6t6 6h279q6 0 6 -6t-6 -6zM441 324h-279q-4 0 -7.5 3.5t-3.5 8t3.5 7.5t7.5 3h279q5 0 8 -3t3 -7.5
t-3 -8t-8 -3.5zM162 336v-1v-1h279q1 0 1 1t-1 1h-279zM302 226h-140q-6 0 -6 6t6 6h140q6 0 6 -6t-6 -6zM302 221h-140q-4 0 -7.5 3.5t-3.5 8t3.5 7.5t7.5 3h140q4 0 7.5 -3t3.5 -7.5t-3.5 -8t-7.5 -3.5zM162 233v-1v-1h140q1 0 1 1t-1 1h-140zM682.5 259q-49.5 0 -84.5 35
t-35 84.5t35 84t84.5 34.5t84 -34.5t34.5 -84t-34.5 -84.5t-84 -35zM682.5 485q-44.5 0 -76 -31t-31.5 -75.5t31.5 -76t76 -31.5t75.5 31.5t31 76t-31 75.5t-75.5 31zM682.5 254q-51.5 0 -88 36.5t-36.5 88t36.5 87.5t88 36t87.5 -36t36 -87.5t-36 -88t-87.5 -36.5zM682 492
q-47 0 -80 -33.5t-33 -80.5t33 -80t80 -33t80.5 33t33.5 80t-33.5 80.5t-80.5 33.5zM682.5 266q-46.5 0 -79.5 33t-33 79.5t33 79.5t79.5 33t79.5 -33t33 -79.5t-33 -79.5t-79.5 -33zM682.5 480q-42.5 0 -72.5 -29.5t-30 -72t30 -72.5t72.5 -30t72 30t29.5 72.5t-29.5 72
t-72 29.5zM504 86q-6 0 -6 6q0 41 22 84q19 38 53 61q42 29 103 33q6 1 6.5 -5t-5.5 -6q-58 -4 -97 -31q-31 -22 -49 -57q-21 -40 -21 -79q0 -6 -6 -6zM504 81q-5 0 -8 3t-3 8q0 43 22 87q21 39 55 63q43 29 106 34h1q10 0 11 -11t-10 -11q-57 -4 -95 -31q-30 -20 -48 -54
q-20 -39 -20 -77q0 -5 -3 -8t-8 -3zM677 265q-60 -4 -101 -32q-33 -22 -51 -59q-22 -42 -22 -82q0 -1 1 -1v-5v5q1 0 1 1q0 40 21 81q19 37 51 59q40 28 100 32q1 0 1 0.5t-1 0.5zM857 86q-6 0 -6 6q-1 27 -9.5 51.5t-18 38.5t-21 25.5t-16.5 15t-8 4.5q-5 3 -2.5 8.5
t8.5 2.5q19 -10 38 -33q38 -46 41 -113q0 -6 -6 -6zM857 81q-10 0 -11 10q-3 60 -37 102q-17 21 -33 30q-4 2 -5.5 6.5t0.5 8.5q3 6 10 6q3 0 5 -2q20 -10 40 -34q39 -47 42 -116q0 -4 -3 -7.5t-7 -3.5h-1zM781 233h-1v-1h1q2 -2 7.5 -5t17.5 -15t22 -27t18.5 -40t9.5 -53
q0 -1 1 -1t1 1q-3 65 -40 109q-19 23 -37 32z" />
    <glyph glyph-name="uniE61F" unicode="&#xe61f;" 
d="M832 -64h-640q-38 0 -67 29t-29 67v512q0 38 29 67t67 29h640q38 0 67 -29t29 -67v-512q0 -38 -29 -67t-67 -29zM192 576q-14 0 -23 -9t-9 -23v-512q0 -14 9 -23t23 -9h640q14 0 23 9t9 23v512q0 14 -9 23t-23 9h-640zM608 390.5q0 -26.5 18.5 -45.5t45.5 -19t45.5 19
t18.5 45.5t-18.5 45t-45.5 18.5t-45.5 -18.5t-18.5 -45zM768 122q-39 30 -62.5 30t-59.5 -18q-53 -26 -115 -19q-23 5 -41 14.5t-30.5 24.5t-20.5 27t-17 30q-8 17 -13 26t-15.5 20.5t-22.5 17.5q-33 14 -60 12.5t-44 -9.5l-17 -9q-15 -9 -31 -6.5t-21 12.5t-0.5 25t13.5 20
q1 0 12.5 5.5t28.5 11.5t39 10.5t50.5 1t55.5 -15.5q21 -12 37.5 -28.5t24.5 -28t21 -33.5q1 -2 4 -6q11 -19 17.5 -27.5t19 -18t29.5 -12.5q30 -7 71 13q20 9 28.5 12t29.5 7t37 0.5t40.5 -14t49.5 -31.5q13 -8 16 -24t-3 -20q0 -1 -7 -4.5t-9.5 -4t-8.5 -1.5t-12.5 1.5
t-13.5 8.5z" />
    <glyph glyph-name="uniE620" unicode="&#xe620;" 
d="M486.5 32q-95.5 0 -163 67.5t-67.5 163t67.5 163t163 67.5t163 -67.5t67.5 -163t-67.5 -163t-163 -67.5zM486.5 442q-74.5 0 -127 -52.5t-52.5 -127t52.5 -127t127 -52.5t127 52.5t52.5 127t-52.5 127t-127 52.5zM896 -122h-819q-32 0 -54.5 22.5t-22.5 54.5v512
q0 32 22.5 54.5t54.5 22.5h77q16 0 37 8.5t32 20.5l30 30q19 18 49 30.5t56 12.5h256q27 0 57 -12.5t49 -30.5l30 -30q11 -12 32 -20.5t37 -8.5h77q32 0 54.5 -22.5t22.5 -54.5v-512q0 -32 -22.5 -54.5t-54.5 -22.5zM77 493q-11 0 -18.5 -7.5t-7.5 -18.5v-512
q0 -10 7.5 -17.5t18.5 -7.5h819q11 0 18.5 7.5t7.5 17.5v512q0 11 -7.5 18.5t-18.5 7.5h-77q-26 0 -56.5 12.5t-48.5 31.5l-30 30q-12 11 -33 19.5t-37 8.5h-256q-16 0 -37 -8.5t-32 -19.5l-30 -30q-19 -19 -49 -31.5t-57 -12.5h-76z" />
    <glyph glyph-name="uniE621" unicode="&#xe621;" 
d="M896 493h-819q-32 0 -54.5 -22.5t-22.5 -54.5v-461q0 -32 22.5 -54.5t54.5 -22.5h819q32 0 54.5 22.5t22.5 54.5v461q0 32 -22.5 54.5t-54.5 22.5zM896 442q2 0 4 -1l-385 -257q-11 -7 -28.5 -7t-28.5 7l-386 257q3 1 5 1h819zM896 -70h-819q-11 0 -18.5 7.5t-7.5 17.5
v439l379 -252q24 -16 56.5 -16t56.5 16l379 252v-439q0 -10 -7.5 -17.5t-18.5 -7.5z" />
    <glyph glyph-name="uniE622" unicode="&#xe622;" 
d="M968 350q36 -41 36 -111q0 -41 -17 -69q-23 -36 -65 -36h-134q109 -199 54 -297q-17 -31 -46.5 -46t-57.5 -15q-10 0 -17 6.5t-9 15.5q-7 51 -44 109t-97 112q-120 108 -271 159q-9 -19 -28 -31.5t-41 -12.5h-154q-32 0 -54.5 22.5t-22.5 54.5v461q0 32 22.5 54.5
t54.5 22.5h154q24 0 43 -13.5t28 -35.5q47 6 83 15.5t51.5 16.5t40.5 20q30 17 49.5 24.5t67 15.5t113.5 8q57 0 98 -27q39 -26 48 -69q31 -13 52 -56q22 -45 22 -90q0 -7 -1 -14q20 -14 34 -44q23 -44 23 -93q0 -33 -12 -54q-2 -2 -2 -3h-1zM230 698h-153q-11 0 -18.5 -7.5
t-7.5 -18.5v-461q0 -10 7.5 -17.5t18.5 -7.5h153q11 0 18.5 7.5t7.5 17.5v461q0 11 -7.5 18.5t-18.5 7.5zM939 302q-11 21 -19 21q-11 0 -18.5 7.5t-7.5 18t7.5 18t18.5 7.5q4 0 6 4q5 10 5 29q0 37 -16 71q-14 28 -25 28t-18.5 7.5t-7.5 17.5q0 14 12 22q1 14 -5.5 41
t-20.5 47q-12 17 -21 17q-11 0 -18.5 7.5t-7.5 17.5q0 32 -28.5 49t-67.5 17q-60 0 -102 -6.5t-59.5 -13.5t-44.5 -22q-27 -14 -44.5 -22t-57.5 -18.5t-92 -17.5v-419q167 -55 298 -173q125 -113 153 -226q27 8 40 31q7 14 9.5 33.5t-1.5 53t-25.5 84.5t-59.5 114
q-7 13 0 26t22 13h179q14 0 22 12q9 14 9 41q0 35 -14 63z" />
    <glyph glyph-name="uniE623" unicode="&#xe623;" 
d="M968 226q36 41 36 111q0 41 -17 69q-23 36 -65 36h-134q109 199 54 297q-17 31 -46.5 46t-57.5 15q-10 0 -17 -6.5t-9 -15.5q-7 -51 -44 -109t-97 -112q-120 -108 -271 -159q-9 19 -28 31.5t-41 12.5h-154q-32 0 -54.5 -22.5t-22.5 -54.5v-461q0 -32 22.5 -54.5
t54.5 -22.5h154q24 0 43 13.5t28 35.5q47 -6 83 -15.5t51.5 -16.5t40.5 -20q30 -17 49.5 -24.5t67 -15.5t113.5 -8q57 0 98 27q39 26 48 69q31 13 52 56q22 45 22 90q0 7 -1 14q20 14 34 44q23 44 23 93q0 33 -12 54q-2 2 -2 3h-1zM230 -122h-153q-11 0 -18.5 7.5t-7.5 18.5
v461q0 10 7.5 17.5t18.5 7.5h153q11 0 18.5 -7.5t7.5 -17.5v-461q0 -11 -7.5 -18.5t-18.5 -7.5zM939 274q-11 -21 -19 -21q-11 0 -18.5 -7.5t-7.5 -18t7.5 -18t18.5 -7.5q4 0 6 -4q5 -10 5 -29q0 -37 -16 -71q-14 -28 -25 -28t-18.5 -7.5t-7.5 -17.5q0 -14 12 -22
q1 -14 -5.5 -41t-20.5 -47q-12 -17 -21 -17q-11 0 -18.5 -7.5t-7.5 -17.5q0 -32 -28.5 -49t-67.5 -17q-60 0 -102 6.5t-59.5 13.5t-44.5 22q-27 14 -44.5 22t-57.5 18.5t-92 17.5v419q167 55 298 173q125 113 153 226q27 -8 40 -31q7 -14 9.5 -33.5t-1.5 -53t-25.5 -84.5
t-59.5 -114q-7 -13 0 -26t22 -13h179q14 0 22 -12q9 -14 9 -41q0 -35 -14 -63z" />
    <glyph glyph-name="uniE624" unicode="&#xe624;" 
d="M486.5 237q-116.5 0 -199 82.5t-82.5 199t82.5 199t199 82.5t199 -82.5t82.5 -199t-82.5 -199t-199 -82.5zM486.5 749q-95.5 0 -163 -67.5t-67.5 -163t67.5 -163t163 -67.5t163 67.5t67.5 163t-67.5 163t-163 67.5zM896 -224h-819q-32 0 -54.5 22.5t-22.5 54.5
q0 10 2 27.5t17.5 61t43.5 80.5q54 72 147 113q113 51 276.5 51t276.5 -51q93 -41 147 -113q28 -37 43.5 -80.5t17.5 -61t2 -27.5q0 -32 -22.5 -54.5t-54.5 -22.5zM486.5 134q-272.5 0 -381.5 -141q-48 -63 -54 -140q0 -11 7.5 -18.5t18.5 -7.5h819q11 0 18.5 7.5t7.5 18.5
q0 7 -2 21.5t-15.5 51.5t-37.5 67q-108 141 -380.5 141z" />
    <glyph glyph-name="uniE625" unicode="&#xe625;" 
d="M417 636q-19 0 -37 -16l-210 -178h-93q-32 0 -54.5 -22.5t-22.5 -54.5v-205q0 -32 22.5 -54.5t54.5 -22.5h93l210 -178q18 -16 37 -16q22 0 35 19q9 13 9 34v640q0 26 -13 40t-31 14zM51 160v205q0 10 7.5 17.5t18.5 7.5h77v-256h-77q-11 0 -18.5 7.5t-7.5 18.5zM410 -53
l-205 174v283l205 174v-631z" />
    <glyph glyph-name="uniE626" unicode="&#xe626;" 
d="M704 160q-24 -24 -45 -59.5t-38 -52t-45 -16.5q-23 0 -46.5 9.5t-51 31.5t-45 38.5t-49.5 48.5t-48.5 49.5t-38.5 45t-31.5 51t-9.5 46.5q0 28 16.5 45t52 38t59.5 45q30 30 -6 93t-95 113t-91 50q-28 0 -76 -48t-82 -96l-34 -48q0 -95 81 -256.5t175 -255.5t255.5 -175
t256.5 -81q8 5 21 14t46 34.5t58 48.5t46 50t21 45q0 32 -50 91t-113 95t-93 6z" />
    <glyph glyph-name="uniE627" unicode="&#xe627;" 
d="M558 -182q-3 -28 -25.5 -38t-44 1.5t-23.5 36.5v642l-283 -274q-16 -14 -34 -12.5t-28 14t-13 29t10 32.5q129 125 357 345q16 17 37.5 17.5t37.5 -17.5q354 -342 358 -347q12 -14 10 -31t-13 -27.5t-26.5 -14.5t-32.5 9q-5 4 -76.5 73.5t-140.5 136.5l-70 67v-642z
M116 797h787v-90h-787v90z" />
  </font>
</defs>
</svg>
